#Comment line ignore any data following # character 
#Hierarchical Translation and Rotation (.htr) file 
[Header]	
#Header keywords are followed by a single value 
FileType HTR		#Single word string
DataType HTRS		#Translation followed by rotation and scale data
FileVersion 1		#integer
NumSegments 84		#integer
NumFrames 2		#integer
DataFrameRate 30		#integer, data frame rate in this file
EulerRotationOrder ZYX
CalibrationUnits mm
RotationUnits Degrees
GlobalAxisofGravity Y
BoneLengthAxis Y
ScaleFactor 1.00
[SegmentNames&Hierarchy]
#CHILD	PARENT
MASTER GLOBAL
root MASTER
chest root
L_mid_tent01 root
R_mid_tent01 root
spine01 root
Bip01_Neck chest
L_humerus chest
R_humerus chest
weapon_bone chest
Bip01_Head Bip01_Neck
eye_left_bone Bip01_Head
eye_right_bone Bip01_Head
L_forearm L_humerus
L_front_hand L_forearm
L_weapon_bone L_forearm
L_front_hand01_01 L_front_hand
L_front_hand02_01 L_front_hand
L_front_hand03_01 L_front_hand
L_front_hand01_02 L_front_hand01_01
L_front_hand02_02 L_front_hand02_01
L_front_hand03_02 L_front_hand03_01
R_forearm R_humerus
R_front_hand R_forearm
R_weapon_bone R_forearm
R_front_hand01_01 R_front_hand
R_front_hand02_01 R_front_hand
R_front_hand03_01 R_front_hand
R_front_hand01_02 R_front_hand01_01
R_front_hand02_02 R_front_hand02_01
R_front_hand03_02 R_front_hand03_01
null_rope01_connect L_mid_tent01
Rope1_Seg01 null_rope01_connect
Rope1_Seg02 Rope1_Seg01
Rope1_Seg03 Rope1_Seg02
Rope1_Seg04 Rope1_Seg03
Rope1_Seg05 Rope1_Seg04
Rope1_Seg06 Rope1_Seg05
Rope1_Seg07 Rope1_Seg06
Rope1_Seg09 Rope1_Seg07
L_mid_hand01 Rope1_Seg09
L_mid_hand02 Rope1_Seg09
L_mid_hand03 Rope1_Seg09
null_rope02_connect R_mid_tent01
Rope2_Seg01 null_rope02_connect
Rope2_Seg02 Rope2_Seg01
Rope2_Seg03 Rope2_Seg02
Rope2_Seg04 Rope2_Seg03
Rope2_Seg05 Rope2_Seg04
Rope2_Seg06 Rope2_Seg05
Rope2_Seg07 Rope2_Seg06
Rope2_Seg09 Rope2_Seg07
R_mid_hand01 Rope2_Seg09
R_mid_hand02 Rope2_Seg09
R_mid_hand03 Rope2_Seg09
spine02 spine01
spine03 spine02
pelvis spine03
null_rope03_connect pelvis
null_rope04_connect pelvis
Rope3_Seg01 null_rope03_connect
Rope3_Seg02 Rope3_Seg01
Rope3_Seg03 Rope3_Seg02
Rope3_Seg04 Rope3_Seg03
Rope3_Seg05 Rope3_Seg04
Rope3_Seg06 Rope3_Seg05
Rope3_Seg07 Rope3_Seg06
Rope3_Seg08 Rope3_Seg07
Rope3_Seg09 Rope3_Seg08
R_rear_hand01 Rope3_Seg09
R_rear_hand02 Rope3_Seg09
R_rear_hand03 Rope3_Seg09
Rope4_Seg01 null_rope04_connect
Rope4_Seg02 Rope4_Seg01
Rope4_Seg03 Rope4_Seg02
Rope4_Seg04 Rope4_Seg03
Rope4_Seg05 Rope4_Seg04
Rope4_Seg06 Rope4_Seg05
Rope4_Seg07 Rope4_Seg06
Rope4_Seg08 Rope4_Seg07
Rope4_Seg09 Rope4_Seg08
L_rear_hand01 Rope4_Seg09
L_rear_hand02 Rope4_Seg09
L_rear_hand03 Rope4_Seg09
[BasePosition]
#SegmentName Tx, Ty, Tz, Rx, Ry, Rz, BoneLength
MASTER 0.000000 0.000000 0.000000 -90.000000 0.000000 0.000000 10.000000 
root 0.000000 0.000000 0.000000 0.000000 0.000000 0.000000 10.000000 
chest 0.000000 0.000000 0.000000 0.000000 0.000000 0.000000 10.000000 
L_mid_tent01 0.000000 0.000000 0.000000 0.000000 0.000000 0.000000 10.000000 
R_mid_tent01 0.000000 0.000000 0.000000 0.000000 0.000000 0.000000 10.000000 
spine01 0.000000 0.000000 0.000000 0.000000 0.000000 0.000000 10.000000 
Bip01_Neck 0.000000 0.000000 0.000000 0.000000 0.000000 0.000000 10.000000 
L_humerus 0.000000 0.000000 0.000000 0.000000 0.000000 0.000000 10.000000 
R_humerus 0.000000 0.000000 0.000000 0.000000 0.000000 0.000000 10.000000 
weapon_bone 0.000000 0.000000 0.000000 0.000000 0.000000 0.000000 10.000000 
Bip01_Head 0.000000 0.000000 0.000000 0.000000 0.000000 0.000000 10.000000 
eye_left_bone 0.000000 0.000000 0.000000 0.000000 0.000000 0.000000 10.000000 
eye_right_bone 0.000000 0.000000 0.000000 0.000000 0.000000 0.000000 10.000000 
L_forearm 0.000000 0.000000 0.000000 0.000000 0.000000 0.000000 10.000000 
L_front_hand 0.000000 0.000000 0.000000 0.000000 0.000000 0.000000 10.000000 
L_weapon_bone 0.000000 0.000000 0.000000 0.000000 0.000000 0.000000 10.000000 
L_front_hand01_01 0.000000 0.000000 0.000000 0.000000 0.000000 0.000000 10.000000 
L_front_hand02_01 0.000000 0.000000 0.000000 0.000000 0.000000 0.000000 10.000000 
L_front_hand03_01 0.000000 0.000000 0.000000 0.000000 0.000000 0.000000 10.000000 
L_front_hand01_02 0.000000 0.000000 0.000000 0.000000 0.000000 0.000000 10.000000 
L_front_hand02_02 0.000000 0.000000 0.000000 0.000000 0.000000 0.000000 10.000000 
L_front_hand03_02 0.000000 0.000000 0.000000 0.000000 0.000000 0.000000 10.000000 
R_forearm 0.000000 0.000000 0.000000 0.000000 0.000000 0.000000 10.000000 
R_front_hand 0.000000 0.000000 0.000000 0.000000 0.000000 0.000000 10.000000 
R_weapon_bone 0.000000 0.000000 0.000000 0.000000 0.000000 0.000000 10.000000 
R_front_hand01_01 0.000000 0.000000 0.000000 0.000000 0.000000 0.000000 10.000000 
R_front_hand02_01 0.000000 0.000000 0.000000 0.000000 0.000000 0.000000 10.000000 
R_front_hand03_01 0.000000 0.000000 0.000000 0.000000 0.000000 0.000000 10.000000 
R_front_hand01_02 0.000000 0.000000 0.000000 0.000000 0.000000 0.000000 10.000000 
R_front_hand02_02 0.000000 0.000000 0.000000 0.000000 0.000000 0.000000 10.000000 
R_front_hand03_02 0.000000 0.000000 0.000000 0.000000 0.000000 0.000000 10.000000 
null_rope01_connect 0.000000 0.000000 0.000000 0.000000 0.000000 0.000000 10.000000 
Rope1_Seg01 0.000000 0.000000 0.000000 0.000000 0.000000 0.000000 10.000000 
Rope1_Seg02 0.000000 0.000000 0.000000 0.000000 0.000000 0.000000 10.000000 
Rope1_Seg03 0.000000 0.000000 0.000000 0.000000 0.000000 0.000000 10.000000 
Rope1_Seg04 0.000000 0.000000 0.000000 0.000000 0.000000 0.000000 10.000000 
Rope1_Seg05 0.000000 0.000000 0.000000 0.000000 0.000000 0.000000 10.000000 
Rope1_Seg06 0.000000 0.000000 0.000000 0.000000 0.000000 0.000000 10.000000 
Rope1_Seg07 0.000000 0.000000 0.000000 0.000000 0.000000 0.000000 10.000000 
Rope1_Seg09 0.000000 0.000000 0.000000 0.000000 0.000000 0.000000 10.000000 
L_mid_hand01 0.000000 0.000000 0.000000 0.000000 0.000000 0.000000 10.000000 
L_mid_hand02 0.000000 0.000000 0.000000 0.000000 0.000000 0.000000 10.000000 
L_mid_hand03 0.000000 0.000000 0.000000 0.000000 0.000000 0.000000 10.000000 
null_rope02_connect 0.000000 0.000000 0.000000 0.000000 0.000000 0.000000 10.000000 
Rope2_Seg01 0.000000 0.000000 0.000000 0.000000 0.000000 0.000000 10.000000 
Rope2_Seg02 0.000000 0.000000 0.000000 0.000000 0.000000 0.000000 10.000000 
Rope2_Seg03 0.000000 0.000000 0.000000 0.000000 0.000000 0.000000 10.000000 
Rope2_Seg04 0.000000 0.000000 0.000000 0.000000 0.000000 0.000000 10.000000 
Rope2_Seg05 0.000000 0.000000 0.000000 0.000000 0.000000 0.000000 10.000000 
Rope2_Seg06 0.000000 0.000000 0.000000 0.000000 0.000000 0.000000 10.000000 
Rope2_Seg07 0.000000 0.000000 0.000000 0.000000 0.000000 0.000000 10.000000 
Rope2_Seg09 0.000000 0.000000 0.000000 0.000000 0.000000 0.000000 10.000000 
R_mid_hand01 0.000000 0.000000 0.000000 0.000000 0.000000 0.000000 10.000000 
R_mid_hand02 0.000000 0.000000 0.000000 0.000000 0.000000 0.000000 10.000000 
R_mid_hand03 0.000000 0.000000 0.000000 0.000000 0.000000 0.000000 10.000000 
spine02 0.000000 0.000000 0.000000 0.000000 0.000000 0.000000 10.000000 
spine03 0.000000 0.000000 0.000000 0.000000 0.000000 0.000000 10.000000 
pelvis 0.000000 0.000000 0.000000 0.000000 0.000000 0.000000 10.000000 
null_rope03_connect 0.000000 0.000000 0.000000 0.000000 0.000000 0.000000 10.000000 
null_rope04_connect 0.000000 0.000000 0.000000 0.000000 0.000000 0.000000 10.000000 
Rope3_Seg01 0.000000 0.000000 0.000000 0.000000 0.000000 0.000000 10.000000 
Rope3_Seg02 0.000000 0.000000 0.000000 0.000000 0.000000 0.000000 10.000000 
Rope3_Seg03 0.000000 0.000000 0.000000 0.000000 0.000000 0.000000 10.000000 
Rope3_Seg04 0.000000 0.000000 0.000000 0.000000 0.000000 0.000000 10.000000 
Rope3_Seg05 0.000000 0.000000 0.000000 0.000000 0.000000 0.000000 10.000000 
Rope3_Seg06 0.000000 0.000000 0.000000 0.000000 0.000000 0.000000 10.000000 
Rope3_Seg07 0.000000 0.000000 0.000000 0.000000 0.000000 0.000000 10.000000 
Rope3_Seg08 0.000000 0.000000 0.000000 0.000000 0.000000 0.000000 10.000000 
Rope3_Seg09 0.000000 0.000000 0.000000 0.000000 0.000000 0.000000 10.000000 
R_rear_hand01 0.000000 0.000000 0.000000 0.000000 0.000000 0.000000 10.000000 
R_rear_hand02 0.000000 0.000000 0.000000 0.000000 0.000000 0.000000 10.000000 
R_rear_hand03 0.000000 0.000000 0.000000 0.000000 0.000000 0.000000 10.000000 
Rope4_Seg01 0.000000 0.000000 0.000000 0.000000 0.000000 0.000000 10.000000 
Rope4_Seg02 0.000000 0.000000 0.000000 0.000000 0.000000 0.000000 10.000000 
Rope4_Seg03 0.000000 0.000000 0.000000 0.000000 0.000000 0.000000 10.000000 
Rope4_Seg04 0.000000 0.000000 0.000000 0.000000 0.000000 0.000000 10.000000 
Rope4_Seg05 0.000000 0.000000 0.000000 0.000000 0.000000 0.000000 10.000000 
Rope4_Seg06 0.000000 0.000000 0.000000 0.000000 0.000000 0.000000 10.000000 
Rope4_Seg07 0.000000 0.000000 0.000000 0.000000 0.000000 0.000000 10.000000 
Rope4_Seg08 0.000000 0.000000 0.000000 0.000000 0.000000 0.000000 10.000000 
Rope4_Seg09 0.000000 0.000000 0.000000 0.000000 0.000000 0.000000 10.000000 
L_rear_hand01 0.000000 0.000000 0.000000 0.000000 0.000000 0.000000 10.000000 
L_rear_hand02 0.000000 0.000000 0.000000 0.000000 0.000000 0.000000 10.000000 
L_rear_hand03 0.000000 0.000000 0.000000 0.000000 0.000000 0.000000 10.000000 
#Beginning of Data. Separated by tabs
#Fr	Tx	Ty	Tz	Rx	Ry	Rz	SF
[MASTER]
4 0.000000 0.000000 0.000000 0.001660 0.001660 0.001660 0.000000
5 0.000000 0.000000 0.000000 0.001660 0.001660 0.001660 0.000000
[root]
4 -104.443153 -62.822124 1289.485718 -86.225098 -4.213218 -89.813721 1295.232910
5 -108.874771 -62.822132 1226.041138 -86.313660 -4.093535 -89.805771 1232.468018
[chest]
4 -74.863297 63.092880 -71.264412 1.592757 1.158735 162.860565 121.094353
5 -74.978233 61.935272 -70.415565 0.913339 2.145610 166.783279 120.066917
[L_mid_tent01]
4 26.527189 22.619993 -244.955475 2.265800 21.675991 63.766232 247.423813
5 26.597612 22.579645 -245.407974 6.131166 21.217707 86.709175 247.875656
[R_mid_tent01]
4 23.228794 24.509907 226.238495 -179.301682 -25.008440 63.246071 228.744751
5 23.228794 24.509907 226.238495 174.957947 -25.699917 84.726082 228.744751
[spine01]
4 -0.361383 -0.195265 0.000000 -0.000001 -0.000007 22.052340 0.410763
5 -0.361383 -0.195265 0.000000 -0.000001 -0.000007 22.052340 0.410763
[Bip01_Neck]
4 165.484543 71.581718 0.000119 175.896118 1.177290 24.871185 180.302734
5 165.484543 71.581718 0.000119 175.896118 1.177290 24.871183 180.302734
[L_humerus]
4 -13.983130 -135.272980 -120.471481 -82.630196 4.152409 -165.999069 181.680161
5 -13.983130 -135.272980 -120.471481 -76.422684 6.557594 -164.535675 181.680161
[R_humerus]
4 -13.983309 -135.273102 125.287651 94.024666 -3.042345 -169.086670 184.909012
5 -13.983309 -135.273102 125.287651 87.736847 -6.406399 -168.277557 184.909012
[weapon_bone]
4 235.964890 -300.705902 0.000000 0.000000 -89.951546 -128.212341 382.234833
5 235.964890 -300.705902 0.000000 0.000000 -89.951546 -128.212341 382.234833
[Bip01_Head]
4 173.340683 75.572739 8.457212 2.736005 -5.334193 -26.837917 189.287491
5 173.389389 79.058075 8.214006 2.087722 -6.554521 -24.540268 190.739426
[eye_left_bone]
4 -24.626970 125.451866 -64.772606 0.000000 -90.000000 -99.840431 143.318359
5 -24.626970 125.451866 -64.772606 0.000000 -90.000000 -99.840431 143.318359
[eye_right_bone]
4 -24.626970 125.451866 64.327362 0.000000 -89.960434 80.159386 143.117676
5 -24.626970 125.451866 64.327362 0.000000 -89.960434 80.159386 143.117676
[L_forearm]
4 322.776093 0.000000 -0.000119 0.000241 -0.002335 -101.768730 322.776093
5 322.776093 0.000000 -0.000119 0.000343 -0.002322 -106.793015 322.776093
[L_front_hand]
4 241.149185 -0.042021 -3.300071 -176.063309 0.583203 -74.246735 241.171753
5 241.149185 -0.042021 -3.300071 -174.966995 0.881600 -70.209862 241.171753
[L_weapon_bone]
4 156.183838 0.000000 0.000000 0.000014 0.000007 0.000001 156.183838
5 156.183838 0.000000 0.000000 0.000014 0.000007 0.000001 156.183838
[L_front_hand01_01]
4 86.095154 20.947098 -0.655860 0.395345 -0.452312 -3.220010 88.609184
5 86.095154 20.947098 -0.655860 0.396036 -0.451709 -3.394842 88.609184
[L_front_hand02_01]
4 86.935165 -11.437475 24.513514 116.930847 2.383259 0.860881 91.046425
5 86.935165 -11.437475 24.513514 116.933113 2.538183 0.940017 91.046425
[L_front_hand03_01]
4 86.637497 -14.123976 -20.424902 -118.373985 -3.428301 -0.822003 90.126129
5 86.637497 -14.123976 -20.424902 -118.378654 -3.582544 -0.737192 90.126129
[L_front_hand01_02]
4 71.020905 -0.000179 0.000030 0.001534 0.001777 -8.378851 71.020905
5 71.020905 -0.000179 0.000030 0.001534 0.001777 -8.378850 71.020905
[L_front_hand02_02]
4 71.020927 -0.000119 0.000060 0.001534 0.001777 -8.378851 71.020927
5 71.020927 -0.000119 0.000060 0.001534 0.001777 -8.378850 71.020927
[L_front_hand03_02]
4 71.020905 -0.000060 0.000060 0.001534 0.001777 -8.378851 71.020905
5 71.020905 -0.000060 0.000060 0.001534 0.001777 -8.378850 71.020905
[R_forearm]
4 322.776428 -0.000060 0.000030 0.212717 0.018059 -95.333138 322.776428
5 322.776428 -0.000060 0.000030 0.210842 0.035822 -101.168022 322.776428
[R_front_hand]
4 238.847015 -0.006795 2.210259 -3.703417 -1.234725 -86.359451 238.857239
5 238.847015 -0.006795 2.210259 -5.035287 -1.599409 -81.824257 238.857239
[R_weapon_bone]
4 155.664093 0.002503 -0.000030 0.003487 0.001180 -90.988930 155.664078
5 155.664093 0.002503 -0.000030 0.003487 0.001180 -90.988930 155.664078
[R_front_hand01_01]
4 87.624611 14.231146 22.918642 -116.933342 2.525434 -0.827847 91.683487
5 87.624611 14.231146 22.918642 -116.935516 2.648507 -0.889763 91.683487
[R_front_hand02_01]
4 89.356956 14.367283 -19.491137 118.386032 -3.297758 1.127763 92.579636
5 89.356956 14.367283 -19.491137 118.390755 -3.417260 1.062554 92.579636
[R_front_hand03_01]
4 87.286232 -22.307278 -0.143439 -0.385889 -0.240080 3.143401 90.091743
5 87.286232 -22.307278 -0.143439 -0.386176 -0.239619 3.280289 90.091743
[R_front_hand01_02]
4 71.020905 0.000060 0.000119 0.001777 0.001534 8.377220 71.020905
5 71.020905 0.000060 0.000119 0.001777 0.001534 8.377220 71.020905
[R_front_hand02_02]
4 71.020844 -0.000030 -0.000119 0.001777 0.001534 8.377220 71.020836
5 71.020844 -0.000030 -0.000119 0.001777 0.001534 8.377220 71.020836
[R_front_hand03_02]
4 71.020905 0.000000 0.000030 0.001777 0.001534 8.377220 71.020905
5 71.020905 0.000000 0.000030 0.001777 0.001534 8.377220 71.020905
[null_rope01_connect]
4 328.732483 0.000000 -0.000238 -137.936569 -71.423271 168.453140 328.732483
5 328.732483 0.000000 -0.000238 -152.900070 -71.473022 161.217682 328.732483
[Rope1_Seg01]
4 -0.000036 0.000034 0.000137 128.834930 -37.613514 130.403702 0.000146
5 -0.000036 0.000033 0.000132 123.041122 -24.618906 126.836121 0.000141
[Rope1_Seg02]
4 139.999863 -0.000179 0.000000 -9.028882 -14.350389 -18.500313 139.999863
5 139.999863 -0.000179 0.000000 -6.721814 -8.925701 -11.980597 139.999863
[Rope1_Seg03]
4 139.999924 0.000060 -0.000060 1.066257 -28.523199 -52.293922 139.999924
5 139.999924 0.000060 -0.000060 -6.910043 -16.044437 -27.763351 139.999924
[Rope1_Seg04]
4 139.999924 -0.000060 -0.000119 3.758999 -5.286585 -26.763124 139.999924
5 139.999924 -0.000060 -0.000119 -0.082058 -14.652942 -29.720005 139.999924
[Rope1_Seg05]
4 139.999832 0.000119 -0.000060 8.948944 12.783816 -39.857319 139.999832
5 139.999832 0.000119 -0.000060 1.287259 1.561003 -20.102333 139.999832
[Rope1_Seg06]
4 139.999954 0.000119 -0.000060 41.814850 2.077543 -28.217701 139.999954
5 139.999954 0.000119 -0.000060 5.722682 11.596495 -32.702847 139.999954
[Rope1_Seg07]
4 139.999985 0.000060 0.000000 23.586109 -6.444092 -7.435106 139.999985
5 139.999985 0.000060 0.000000 19.381536 2.229753 -20.033976 139.999985
[Rope1_Seg09]
4 121.602913 0.000119 -0.000089 -89.793175 -1.359789 0.847147 121.602913
5 121.602913 0.000119 -0.000089 -89.793175 -1.359789 0.847147 121.602913
[L_mid_hand01]
4 103.859421 1.038730 8.195221 104.352036 0.341479 -0.444583 104.187431
5 103.859421 1.038730 8.195221 104.462761 -7.011021 -2.332811 104.187431
[L_mid_hand02]
4 105.572853 -4.139662 -10.864139 -135.608444 3.905687 -3.381056 106.211075
5 105.572853 -4.139662 -10.864139 -136.237473 9.182654 -8.865868 106.211075
[L_mid_hand03]
4 104.641464 17.579376 -3.913581 -18.761518 -0.324361 2.942912 106.179977
5 104.641464 17.579376 -3.913581 -18.652081 2.112390 10.130965 106.179977
[null_rope02_connect]
4 328.732849 0.000179 -0.000119 -153.382462 61.437134 -4.507028 328.732849
5 328.732849 0.000179 -0.000119 -160.705627 60.228882 8.573835 328.732849
[Rope2_Seg01]
4 0.000078 0.000089 0.000000 -23.872528 41.047104 87.844070 0.000118
5 0.000072 0.000080 0.000000 -26.552057 33.100304 86.723053 0.000108
[Rope2_Seg02]
4 139.999741 -0.000060 -0.000119 1.062156 8.224330 1.645015 139.999756
5 139.999741 -0.000060 -0.000119 0.329039 4.797896 -0.811216 139.999756
[Rope2_Seg03]
4 140.000107 0.000030 0.000000 0.495009 8.792476 1.706450 140.000107
5 140.000107 0.000030 0.000000 0.224270 5.292574 -0.968276 140.000107
[Rope2_Seg04]
4 139.999802 0.000000 -0.000060 -0.123631 8.008327 1.822512 139.999802
5 139.999802 0.000000 -0.000060 -0.107198 6.428693 -2.555608 139.999802
[Rope2_Seg05]
4 139.999985 -0.000060 0.000119 -1.010126 10.894432 1.112660 139.999985
5 139.999985 -0.000060 0.000119 -0.044366 5.592576 0.172799 139.999985
[Rope2_Seg06]
4 139.999893 -0.000030 -0.000119 -2.560639 13.429484 0.910568 139.999893
5 139.999893 -0.000030 -0.000119 -0.222195 2.671446 3.771753 139.999893
[Rope2_Seg07]
4 139.999893 0.000060 -0.000060 -3.397497 10.011217 1.387803 139.999893
5 139.999893 0.000060 -0.000060 -0.227652 2.143298 2.287814 139.999893
[Rope2_Seg09]
4 121.338966 0.000089 -0.000060 33.793236 -1.359788 -0.847141 121.338966
5 121.338966 0.000089 -0.000060 33.793236 -1.359788 -0.847141 121.338966
[R_mid_hand01]
4 104.680779 11.144459 -10.335981 -32.888233 36.369057 45.248283 105.778534
5 104.680779 11.144459 -10.335981 -25.792381 41.326004 56.528412 105.778534
[R_mid_hand02]
4 104.070427 2.443552 8.231699 67.465202 -49.669136 18.087236 104.424065
5 104.070427 2.443552 8.231699 61.410858 -58.776127 25.520473 104.424065
[R_mid_hand03]
4 106.028137 -11.221827 -5.996406 -171.645569 13.472824 -55.062714 106.788818
5 106.028137 -11.221827 -5.996406 -174.164200 14.722942 -65.372536 106.788818
[spine02]
4 129.756927 0.001550 0.000119 -0.025037 -4.228735 -7.527879 129.756927
5 129.756927 0.001550 0.000119 -0.035124 -4.268684 -7.386236 129.756927
[spine03]
4 78.719063 0.068934 -3.871077 0.046299 7.633601 -9.448439 78.814217
5 78.711945 0.070174 -3.940657 0.065197 7.569274 -9.242967 78.810555
[pelvis]
4 169.435242 0.051022 0.000000 0.008036 2.902234 -4.045843 169.435257
5 169.435242 0.051022 0.000000 0.009258 2.827890 -3.902202 169.435257
[null_rope03_connect]
4 -1.257226 -2.466202 137.391083 -52.223984 -82.527084 145.139893 137.418976
5 -1.257226 -2.466202 137.391083 -52.317692 -82.749809 144.631775 137.418976
[null_rope04_connect]
4 -1.259640 -2.480268 -137.844437 -52.223984 -82.527084 145.139893 137.872513
5 -1.259640 -2.480268 -137.844437 -52.317692 -82.749809 144.631775 137.872513
[Rope3_Seg01]
4 0.000000 0.000000 0.000000 -154.392914 45.312954 -104.702995 0.000000
5 0.000000 0.000000 0.000000 -158.294449 60.401161 -100.103767 0.000000
[Rope3_Seg02]
4 139.999924 -0.000119 0.000060 5.896155 7.216208 -18.724087 139.999924
5 139.999924 -0.000119 0.000060 5.184673 12.669182 -21.683168 139.999924
[Rope3_Seg03]
4 139.999924 -0.000119 0.000119 1.804697 5.832281 -22.604195 139.999924
5 139.999924 -0.000119 0.000119 -1.055349 11.659536 -28.146481 139.999924
[Rope3_Seg04]
4 139.999924 0.000119 0.000000 -1.877066 3.981305 -18.545219 139.999924
5 139.999924 0.000119 0.000000 -4.540768 7.564199 -19.525795 139.999924
[Rope3_Seg05]
4 139.999924 -0.000238 0.000060 0.089678 -0.412945 -1.091681 139.999924
5 139.999924 -0.000238 0.000060 -0.115561 0.490479 -0.809941 139.999924
[Rope3_Seg06]
4 139.999893 -0.000119 -0.000060 1.416992 -2.890094 7.362823 139.999893
5 139.999893 -0.000119 -0.000060 2.137930 -4.011175 9.157837 139.999893
[Rope3_Seg07]
4 139.999771 0.000060 -0.000119 0.822630 -1.370021 2.925225 139.999771
5 139.999771 0.000060 -0.000119 1.249495 -2.425668 6.345394 139.999771
[Rope3_Seg08]
4 139.999985 -0.000060 0.000000 0.687938 -0.814007 1.569617 139.999985
5 139.999985 -0.000060 0.000000 0.805735 -1.215476 3.500434 139.999985
[Rope3_Seg09]
4 90.185997 -0.000179 -0.000060 89.793228 -1.359877 -0.847183 90.185997
5 90.185997 -0.000179 -0.000060 89.793228 -1.359877 -0.847183 90.185997
[R_rear_hand01]
4 103.366196 -6.073594 -10.757982 -161.551193 16.666374 -30.088671 104.101845
5 103.366196 -6.073594 -10.757982 -161.551193 16.666374 -30.088671 104.101845
[R_rear_hand02]
4 100.509819 12.039542 -7.992327 -34.280552 19.289745 28.875523 101.543350
5 100.509819 12.039542 -7.992327 -34.280552 19.289745 28.875523 101.543350
[R_rear_hand03]
4 101.539970 5.215704 5.435467 83.366440 -30.933914 7.284830 101.819031
5 101.539970 5.215704 5.435467 83.366440 -30.933914 7.284830 101.819031
[Rope4_Seg01]
4 0.000014 -0.000107 -0.000011 56.553204 36.238285 -89.884201 0.000108
5 0.000013 -0.000104 -0.000015 58.606228 48.735714 -93.198715 0.000106
[Rope4_Seg02]
4 139.999985 0.000060 0.000119 -3.255936 -12.667089 5.332800 139.999985
5 139.999985 0.000060 0.000119 -5.622403 -16.501961 11.585586 139.999985
[Rope4_Seg03]
4 139.999924 0.000000 -0.000238 -1.178016 -15.531425 3.741977 139.999924
5 139.999924 0.000000 -0.000238 -1.996937 -19.478285 9.976745 139.999924
[Rope4_Seg04]
4 139.999985 0.000000 0.000119 1.000380 -14.633047 2.865448 139.999985
5 139.999985 0.000000 0.000119 1.394350 -13.347539 6.934268 139.999985
[Rope4_Seg05]
4 139.999802 -0.000060 -0.000119 1.812580 0.451929 9.799642 139.999802
5 139.999802 -0.000060 -0.000119 1.374870 0.017425 6.524273 139.999802
[Rope4_Seg06]
4 139.999924 0.000000 0.000060 0.921398 4.075049 8.539641 139.999924
5 139.999924 0.000000 0.000060 0.820415 3.381921 5.911606 139.999924
[Rope4_Seg07]
4 139.999802 0.000000 0.000000 0.157737 0.678361 4.623202 139.999802
5 139.999802 0.000000 0.000000 0.426584 0.371480 4.356347 139.999802
[Rope4_Seg08]
4 139.999924 0.000000 0.000119 -1.535994 0.431339 2.894640 139.999924
5 139.999924 0.000000 0.000119 -1.341918 0.273835 2.961460 139.999924
[Rope4_Seg09]
4 90.185791 0.000060 0.000060 -135.617828 2.228885 0.850567 90.185791
5 90.185791 0.000060 0.000060 -135.617828 2.228885 0.850567 90.185791
[L_rear_hand01]
4 101.696655 -8.392275 -7.654577 -35.071354 -17.645174 153.624176 102.329041
5 101.696655 -8.392275 -7.654577 -35.077457 -17.632034 153.646408 102.329041
[L_rear_hand02]
4 102.726799 -1.568258 5.773216 83.554924 28.065464 173.090912 102.900848
5 102.726799 -1.568258 5.773216 83.556526 28.041592 173.095428 102.900848
[L_rear_hand03]
4 104.552910 9.721220 -10.420293 -160.757263 -15.735625 -152.756088 105.519653
5 104.552910 9.721220 -10.420293 -160.751328 -15.727194 -152.779953 105.519653
